<svg width="512" height="512" viewBox="0 0 512 512" fill="none" xmlns="http://www.w3.org/2000/svg">
<rect width="512" height="512" rx="60" fill="url(#paint0_linear_4_855)"/>
<circle opacity="0.35" cx="256" cy="256" r="210" fill="url(#paint1_radial_4_855)"/>
<path fill-rule="evenodd" clip-rule="evenodd" d="M331.985 156.289C336.796 151.532 344.553 151.576 349.309 156.388L401.211 208.888C404.686 212.402 405.708 217.66 403.804 222.22C401.9 226.781 397.442 229.75 392.5 229.75H280.5C273.735 229.75 268.25 224.265 268.25 217.5C268.25 210.735 273.735 205.25 280.5 205.25H363.164L331.886 173.612C327.13 168.801 327.174 161.045 331.985 156.289ZM107.25 217.5C107.25 210.735 112.735 205.25 119.5 205.25H171.137C206.719 205.25 240.955 218.85 266.838 243.266C288.175 263.392 316.397 274.603 345.728 274.603H392.5C397.38 274.603 401.795 277.5 403.738 281.976C405.68 286.453 404.78 291.656 401.447 295.22L348.469 351.867C343.847 356.809 336.096 357.068 331.154 352.447C326.213 347.826 325.954 340.074 330.575 335.133L364.271 299.103H345.728C310.146 299.103 275.91 285.503 250.027 261.087C228.691 240.961 200.469 229.75 171.137 229.75H119.5C112.735 229.75 107.25 224.265 107.25 217.5ZM107.25 287.5C107.25 280.735 112.735 275.25 119.5 275.25H235C241.765 275.25 247.25 280.735 247.25 287.5C247.25 294.265 241.765 299.75 235 299.75H119.5C112.735 299.75 107.25 294.265 107.25 287.5Z" fill="white"/>
<defs>
<linearGradient id="paint0_linear_4_855" x1="0" y1="0" x2="512" y2="512" gradientUnits="userSpaceOnUse">
<stop stop-color="#9C4DF9"/>
<stop offset="1" stop-color="#00B3F9"/>
</linearGradient>
<radialGradient id="paint1_radial_4_855" cx="0" cy="0" r="1" gradientUnits="userSpaceOnUse" gradientTransform="translate(256 256) rotate(90) scale(210)">
<stop stop-color="white"/>
<stop offset="1" stop-color="white" stop-opacity="0"/>
</radialGradient>
</defs>
</svg>
