<svg width="256" height="256" viewBox="0 0 256 256" fill="none" xmlns="http://www.w3.org/2000/svg">
<rect width="256" height="256" rx="64" fill="black"/>
<path d="M122.592 151.471C91.5671 185.598 89.192 189.254 48.2199 189.254C24.7489 189.254 27.7966 159.694 48.2199 162.44C70.1904 165.395 79.6574 156.623 93.3965 141.739C107.136 126.855 128.889 87.3551 135.759 81.6305C146.636 70.7536 164.954 64.4565 174.114 64.4565V95.3696C154.65 95.3696 147.208 116.551 122.592 151.471Z" fill="#86EF5F"/>
<path d="M118.963 156.051C149.876 192.689 167.623 191.544 185.942 191.544V164.065C173.347 164.065 161.898 161.203 148.159 146.319C134.42 131.435 121.253 98.2321 105.797 86.2103C90.3401 74.1886 69.7316 69.6089 49.1229 69.6089C28.5142 69.6089 21.6446 95.3698 49.1229 95.3698C89.1953 95.9422 97.7823 117.696 118.963 156.051Z" fill="#00D4F8"/>
<path d="M170.68 99.0751V56.6014C170.68 52.9574 174.614 50.6703 177.781 52.473L212.087 72.0011C215.156 73.7482 215.313 78.1146 212.377 80.078L178.072 103.024C174.915 105.135 170.68 102.872 170.68 99.0751Z" fill="#00B787"/>
<path d="M174.115 198.107V155.634C174.115 151.99 178.049 149.703 181.216 151.505L215.521 171.033C218.591 172.78 218.748 177.147 215.812 179.11L181.507 202.056C178.35 204.167 174.115 201.905 174.115 198.107Z" fill="#0085E6"/>
<g clip-path="url(#clip0_234_342)">
<path d="M137.441 48.2829C140.117 49.546 141.251 52.7362 139.994 55.3999C138.737 58.0636 135.541 59.2101 132.877 57.953C130.213 56.6958 129.067 53.4997 130.324 50.836C131.581 48.1723 134.777 47.0258 137.441 48.2829Z" fill="#FFBE40"/>
<path d="M152.753 49.1346C153.429 48.3574 154.504 48.4017 155.268 49.0713C156.045 49.7468 156.001 50.8218 155.331 51.5863C154.656 52.3635 153.581 52.3192 152.816 51.6497C152.052 50.9801 152.017 49.7133 152.753 49.1346Z" fill="#FFBE40"/>
<path d="M118.651 71.939C119.327 71.1618 120.402 71.2061 121.166 71.8757C121.943 72.5512 121.899 73.6262 121.23 74.3908C120.554 75.1679 119.479 75.1236 118.715 74.4541C117.937 73.7786 117.915 72.5177 118.651 71.939Z" fill="#FFBE40"/>
</g>
<g clip-path="url(#clip1_234_342)">
<path d="M130.5 206.084C130.116 203.15 132.187 200.471 135.108 200.089C138.029 199.707 140.721 201.777 141.103 204.697C141.485 207.618 139.415 210.31 136.495 210.692C133.574 211.074 130.882 209.004 130.5 206.084Z" fill="#FF5B8C"/>
<path d="M122.941 192.741C121.922 192.593 121.378 191.664 121.528 190.659C121.677 189.64 122.605 189.096 123.61 189.246C124.629 189.395 125.173 190.323 125.023 191.328C124.873 192.333 123.826 193.047 122.941 192.741Z" fill="#FF5B8C"/>
<path d="M160.558 209.107C159.539 208.959 158.996 208.031 159.146 207.025C159.294 206.007 160.222 205.463 161.228 205.613C162.247 205.761 162.79 206.69 162.64 207.695C162.492 208.714 161.443 209.414 160.558 209.107Z" fill="#FF5B8C"/>
</g>
<defs>
<clipPath id="clip0_234_342">
<rect width="24.7222" height="38.7375" fill="white" transform="translate(134.058 38.9683) rotate(25.2653)"/>
</clipPath>
<clipPath id="clip1_234_342">
<rect width="24.7222" height="38.7375" fill="white" transform="translate(124.492 213.965) rotate(-97.4512)"/>
</clipPath>
</defs>
</svg>
